<svg enable-background="new 0 0 24 24" height="15" viewBox="0 0 24 24" width="24" xmlns="http://www.w3.org/2000/svg">
  <path d="m0 0h24v24h-24z" fill="none"/>
  <path d="m0 0h24v24h-24z" fill="none"/>
  <path d="m5 11h4c1.1 0 2-.9 2-2v-4c0-1.1-.9-2-2-2h-4c-1.1 0-2 .9-2 2v4c0 1.1.9 2 2 2zm0-6h4v4h-4z" fill="white"/>
  <path d="m5 21h4c1.1 0 2-.9 2-2v-4c0-1.1-.9-2-2-2h-4c-1.1 0-2 .9-2 2v4c0 1.1.9 2 2 2zm0-6h4v4h-4z" fill="white"/>
  <path d="m13 5v4c0 1.1.9 2 2 2h4c1.1 0 2-.9 2-2v-4c0-1.1-.9-2-2-2h-4c-1.1 0-2 .9-2 2zm6 4h-4v-4h4z" fill="white"/>
  <path d="m21 20.5v-1c0-.28-.22-.5-.5-.5h-1c-.28 0-.5.22-.5.5v1c0 .28.22.5.5.5h1c.28 0 .5-.22.5-.5z" fill="white"/>
  <path d="m13 13.5v1c0 .28.22.5.5.5h1c.28 0 .5-.22.5-.5v-1c0-.28-.22-.5-.5-.5h-1c-.28 0-.5.22-.5.5z" fill="white"/>
  <path d="m16.5 15h-1c-.28 0-.5.22-.5.5v1c0 .28.22.5.5.5h1c.28 0 .5-.22.5-.5v-1c0-.28-.22-.5-.5-.5z" fill="white"/>
  <path d="m13 17.5v1c0 .28.22.5.5.5h1c.28 0 .5-.22.5-.5v-1c0-.28-.22-.5-.5-.5h-1c-.28 0-.5.22-.5.5z" fill="white"/>
  <path d="m15.5 21h1c.28 0 .5-.22.5-.5v-1c0-.28-.22-.5-.5-.5h-1c-.28 0-.5.22-.5.5v1c0 .28.22.5.5.5z" fill="white"/>
  <path d="m17.5 19h1c.28 0 .5-.22.5-.5v-1c0-.28-.22-.5-.5-.5h-1c-.28 0-.5.22-.5.5v1c0 .28.22.5.5.5z" fill="white"/>
  <path d="m18.5 13h-1c-.28 0-.5.22-.5.5v1c0 .28.22.5.5.5h1c.28 0 .5-.22.5-.5v-1c0-.28-.22-.5-.5-.5z" fill="white"/>
  <path d="m19.5 17h1c.28 0 .5-.22.5-.5v-1c0-.28-.22-.5-.5-.5h-1c-.28 0-.5.22-.5.5v1c0 .28.22.5.5.5z" fill="white"/>
</svg>
